<?xml version="1.0" encoding="iso-8859-1"?>
<!-- Generator: Adobe Illustrator 16.0.0, SVG Export Plug-In . SVG Version: 6.00 Build 0)  -->
<!DOCTYPE svg PUBLIC "-//W3C//DTD SVG 1.1//EN" "http://www.w3.org/Graphics/SVG/1.1/DTD/svg11.dtd">
<svg version="1.1" id="Capa_1" xmlns="http://www.w3.org/2000/svg" xmlns:xlink="http://www.w3.org/1999/xlink" x="0px" y="0px"
	 width="34.906px" height="34.905px" viewBox="0 0 34.906 34.905" style="enable-background:new 0 0 34.906 34.905;"
	 xml:space="preserve">
<g>
	<g>
		<path d="M16.782,10.317l0.217-1.764l-0.343-0.281h0.758h0.828L17.9,8.551l0.221,1.763l1.38-2.713
			c2.406,0.323,4.138,1.353,4.14,3.86l-12.375,0.015c-0.004-2.507,1.724-3.541,4.131-3.869L16.782,10.317z M14.853,4.538
			c0.007-0.001,0.013-0.008,0.02-0.011c0.416,1.502,1.493,2.625,2.583,2.648c0.995-0.047,2.213-1.152,2.62-2.646
			c0.188,0.01,0.373-0.21,0.426-0.519c0.056-0.319-0.061-0.605-0.254-0.638c-0.014-0.002-0.022,0.005-0.035,0.006
			C20.152,0.904,18.979,0.036,17.498,0c-1.523,0.009-2.889,1.071-2.8,3.386c-0.015-0.002-0.028-0.009-0.044-0.008
			c-0.19,0.034-0.305,0.319-0.25,0.64C14.459,4.34,14.659,4.573,14.853,4.538z M9.669,25.1l-1.381,2.713l-0.222-1.762l0.342-0.281
			H7.581l-0.758,0.002l0.343,0.281l-0.217,1.764l-1.387-2.711c-2.407,0.328-4.135,1.361-4.131,3.869l12.375-0.017
			C13.807,26.453,12.075,25.426,9.669,25.1z M10.379,20.881c-0.061-2.475-1.234-3.342-2.715-3.378
			c-1.523,0.009-2.889,1.072-2.799,3.386c-0.016-0.002-0.028-0.01-0.044-0.008c-0.19,0.033-0.306,0.318-0.251,0.639
			c0.056,0.32,0.256,0.554,0.449,0.521c0.008,0,0.014-0.006,0.021-0.01c0.416,1.502,1.493,2.625,2.583,2.647
			c0.994-0.047,2.214-1.151,2.62-2.646c0.188,0.01,0.373-0.211,0.426-0.519c0.054-0.319-0.062-0.606-0.255-0.641
			C10.401,20.871,10.391,20.879,10.379,20.881z M29.335,25.1l-1.381,2.713l-0.223-1.762l0.344-0.281h-0.828l-0.758,0.002
			l0.342,0.281l-0.217,1.764l-1.387-2.711c-2.406,0.328-4.135,1.361-4.131,3.869l12.377-0.017
			C33.473,26.453,31.742,25.426,29.335,25.1z M24.685,22.039c0.008,0,0.014-0.008,0.021-0.01c0.416,1.5,1.492,2.625,2.582,2.646
			c0.996-0.048,2.215-1.152,2.621-2.646c0.188,0.01,0.373-0.209,0.426-0.518c0.054-0.318-0.062-0.605-0.254-0.64
			c-0.014-0.002-0.024,0.004-0.037,0.006c-0.059-2.473-1.231-3.341-2.713-3.377c-1.524,0.009-2.891,1.071-2.801,3.386
			c-0.014-0.002-0.027-0.011-0.043-0.009c-0.19,0.035-0.307,0.32-0.25,0.64C24.292,21.84,24.492,22.072,24.685,22.039z
			 M31.787,19.572c0,0.412-0.026,0.816-0.062,1.221l0.896,0.898c0.098-0.695,0.164-1.398,0.164-2.119
			c0-6.795-4.449-12.566-10.584-14.571v1.064C27.775,8.032,31.787,13.335,31.787,19.572z M3.182,20.793
			c-0.033-0.402-0.062-0.809-0.062-1.221c0-6.237,4.011-11.541,9.583-13.507V5.001C6.568,7.006,2.12,12.776,2.12,19.572
			c0,0.721,0.067,1.424,0.164,2.119L3.182,20.793z M17.453,33.906c-3.854,0-7.352-1.537-9.93-4.021l-0.707,0.707
			c2.761,2.666,6.507,4.313,10.637,4.313c4.13,0,7.876-1.647,10.637-4.313l-0.707-0.707C24.805,32.369,21.307,33.906,17.453,33.906z
			"/>
	</g>
</g>
<g>
</g>
<g>
</g>
<g>
</g>
<g>
</g>
<g>
</g>
<g>
</g>
<g>
</g>
<g>
</g>
<g>
</g>
<g>
</g>
<g>
</g>
<g>
</g>
<g>
</g>
<g>
</g>
<g>
</g>
</svg>
